<svg width="48" height="20" viewBox="0 0 48 20" fill="none" xmlns="http://www.w3.org/2000/svg">
<path d="M0.00245397 19.9953V6.94305H2.96151L3.22627 8.47529C3.88575 7.39169 5.20716 6.5459 7.08262 6.5459C9.0635 6.5459 10.4388 7.52408 11.1253 9.02935C11.7847 7.52408 13.3194 6.5459 15.3003 6.5459C18.4702 6.5459 20.2157 8.44832 20.2157 11.4613V19.9953H17.0189V12.3071C17.0189 10.4317 16.0137 9.45348 14.4815 9.45348C12.9493 9.45348 11.7333 10.4586 11.7333 12.5989V19.9977H8.50944V12.2826C8.50944 10.4586 7.53125 9.4829 5.99901 9.4829C4.46677 9.4829 3.22383 10.488 3.22383 12.6013V20.0002H0L0.00245397 19.9953Z" fill="#3939FF"/>
<path d="M21.2148 15.9354C21.2148 13.5304 22.9579 12.0251 26.0494 11.7873L29.9596 11.4956V11.2038C29.9596 9.4338 28.903 8.72038 27.2654 8.72038C25.3629 8.72038 24.3063 9.51224 24.3063 10.8876H21.5581C21.5581 8.06091 23.8822 6.20996 27.4247 6.20996C30.9672 6.20996 33.105 8.11239 33.105 11.7309V19.6569H30.2783L30.0405 17.7275C29.4865 19.0759 27.7164 20.0001 25.6816 20.0001C22.9089 20.0001 21.2173 18.3894 21.2173 15.9305L21.2148 15.9354ZM29.9866 14.3762V13.6897L27.2654 13.9006C25.2575 14.0844 24.4902 14.7464 24.4902 15.803C24.4902 16.992 25.282 17.573 26.7358 17.573C28.7167 17.573 29.9866 16.384 29.9866 14.3762Z" fill="#3939FF"/>
<path d="M34.1055 13.1822C34.1055 9.11253 36.4835 6.2074 40.4207 6.2074C42.2447 6.2074 43.8554 6.97475 44.6742 8.26919V0H47.8711V19.6568H44.9121L44.7012 17.622C43.9094 19.1272 42.2178 20 40.2369 20C36.459 20 34.1079 17.2248 34.1079 13.1822H34.1055ZM44.6473 13.0767C44.6473 10.7257 43.1935 9.08801 40.9478 9.08801C38.7022 9.08801 37.3268 10.7526 37.3268 13.0767C37.3268 15.4008 38.7022 17.0409 40.9478 17.0409C43.1935 17.0409 44.6473 15.4302 44.6473 13.0767Z" fill="#3939FF"/>
</svg>
